<svg xmlns="http://www.w3.org/2000/svg" viewBox="0 0 269.35 267.2"><defs><style>.cls-1{fill:#96f;}</style></defs><title>icon-share</title><g id="Capa_2" data-name="Capa 2"><g id="Capa_1-2" data-name="Capa 1"><path class="cls-1" d="M218.7,165.9A50.57,50.57,0,0,0,180,184l-79.86-39.41a50.24,50.24,0,0,0,0-21.92L180,83.22A50.68,50.68,0,1,0,169.26,61.6L89.4,101a50.66,50.66,0,1,0,0,65.15l79.86,39.42a50.09,50.09,0,0,0-1.21,11A50.65,50.65,0,1,0,218.7,165.9Zm0-141.78a26.53,26.53,0,1,1-26.53,26.53A26.56,26.56,0,0,1,218.7,24.12Zm-168,136A26.53,26.53,0,1,1,77.18,133.6,26.56,26.56,0,0,1,50.65,160.13Zm168,83a26.53,26.53,0,1,1,26.53-26.53A26.56,26.56,0,0,1,218.7,243.08Z"/></g></g></svg>