<svg xmlns="http://www.w3.org/2000/svg" viewBox="0 0 216.03 216.03"><defs><style>.cls-1{fill:#fff;}</style></defs><title>icon-bell</title><g id="Capa_2" data-name="Capa 2"><g id="Capa_1-2" data-name="Capa 1"><path class="cls-1" d="M108,216A108,108,0,1,1,216,108,108.14,108.14,0,0,1,108,216Zm0-206a98,98,0,1,0,98,98A98.13,98.13,0,0,0,108,10Z"/><path class="cls-1" d="M96.74,155.05h22.58a11.29,11.29,0,1,1-22.58,0Zm59-11.06a4,4,0,0,1-1.15,2.83,4.09,4.09,0,0,1-2.86,1.18H64.32a4,4,0,0,1-4-4,4.08,4.08,0,0,1,1.15-2.82L65,137.62l5.65-5.8V95.42c0-.77,0-1.53.07-2.25s.12-1.53.2-2.29.22-1.42.34-2.14a18.17,18.17,0,0,1,.46-2.14c.19-.68.38-1.41.57-2.1a34.84,34.84,0,0,1,1.57-4.09c.17-.41.34-.8.53-1.2h0c.45-.91.92-1.81,1.44-2.67h0c.53-.89,1.1-1.76,1.7-2.61h0l.09-.12c.54-.74,1.1-1.48,1.69-2.18A37.07,37.07,0,0,1,99.7,59V54.28A8.22,8.22,0,0,1,108,46h.11A8.26,8.26,0,0,1,112,47h0a8.35,8.35,0,0,1,4.39,7.33V59A37,37,0,0,1,134.73,69.4l.5.54c.46.49.92,1,1.35,1.5.75.88,1.46,1.8,2.13,2.75h0c.33.49.64,1,1,1.48a36.19,36.19,0,0,1,2.18,4l.48,1.06h0a36.83,36.83,0,0,1,1.43,3.79c.19.69.38,1.42.57,2.1a20.43,20.43,0,0,1,.46,2.14c.12.72.23,1.41.35,2.14s.15,1.52.19,2.29.07,1.48.07,2.25v36.4l5.69,5.8,3.47,3.55A4,4,0,0,1,155.72,144ZM135,95.1A27,27,0,1,0,81,95.1V138H135Zm-27,.55.11-.16h-.19Z"/></g></g></svg>