<svg xmlns="http://www.w3.org/2000/svg" viewBox="0 0 207.31 268.05"><title>icon-location</title><g id="Capa_2" data-name="Capa 2"><g id="Capa_1-2" data-name="Capa 1"><path d="M103.66,157.65a54,54,0,1,1,54-54A54.06,54.06,0,0,1,103.66,157.65Zm0-89a35,35,0,1,0,35,35A35,35,0,0,0,103.66,68.66Z"/><path d="M103.66,268.05a18.57,18.57,0,0,1-15.06-7.73l-70.75-98.5a103.58,103.58,0,0,1,159-131.4,103,103,0,0,1,30.46,71.79h0a103.1,103.1,0,0,1-17.84,59.61l-.23.32-70.51,98.18A18.57,18.57,0,0,1,103.66,268.05ZM33.48,151l2.79,3.89,67.39,93.81L173.83,151a84.08,84.08,0,0,0,14.47-48.54h0C187.68,57,150.22,19.59,104.78,19a84.67,84.67,0,0,0-71.3,132Z"/></g></g></svg>