<svg xmlns="http://www.w3.org/2000/svg" viewBox="0 0 239.25 228.78"><defs><style>.cls-1{fill:#fff;}</style></defs><title>icon-star</title><g id="Capa_2" data-name="Capa 2"><g id="Capa_1-2" data-name="Capa 1"><path class="cls-1" d="M113.72,198.76,59.45,227.29A12.68,12.68,0,0,1,41,213.92L51.4,153.49a12.67,12.67,0,0,0-3.65-11.23L3.85,99.46a12.69,12.69,0,0,1,7-21.65L71.55,69a12.7,12.7,0,0,0,9.56-6.94l27.13-55a12.69,12.69,0,0,1,22.76,0l27.14,55A12.7,12.7,0,0,0,167.69,69l60.68,8.81a12.69,12.69,0,0,1,7,21.65l-43.91,42.8a12.7,12.7,0,0,0-3.65,11.23l10.37,60.43a12.68,12.68,0,0,1-18.41,13.37l-54.27-28.53A12.71,12.71,0,0,0,113.72,198.76Z"/></g></g></svg>