<svg xmlns="http://www.w3.org/2000/svg" viewBox="0 0 258 249.41"><defs><style>.cls-1{fill:#0f9;}</style></defs><title>icon-verified</title><g id="Capa_2" data-name="Capa 2"><g id="Capa_1-2" data-name="Capa 1"><path class="cls-1" d="M249.78,105.94A144.53,144.53,0,0,0,236.9,95.48c-3.44-2.56-5-5.39-3.73-9.88,1.93-6.84,4.26-13.58,5.08-20.73,1-8.43-2.22-17.71-10.07-22.29-4.54-2.64-9.5-3.56-14.62-4.22-5.67-.73-11.4-.09-17.06-.94a6,6,0,0,1-5.05-3.53c-2.42-4.91-3.7-10.25-5.92-15.23a43.94,43.94,0,0,0-6.77-11.41C172-.44,162.47-1.66,153.23,1.93a57.89,57.89,0,0,0-10.52,5.86c-3.65,2.38-7,5.16-11.06,7a5.91,5.91,0,0,1-5.28,0c-4.56-2.06-8.37-5.27-12.53-7.94C109.51,4,105.08,1.44,100,.49,92.73-.85,86.19.45,80.68,5.8c-3.84,3.73-6.21,8.29-8.3,13.08-2.18,5-3.46,10.34-5.95,15.22a5.67,5.67,0,0,1-4.66,3.28,84.32,84.32,0,0,1-10,.53c-5.28.19-10.58.43-15.67,2-8.93,2.75-14.64,8.39-16.15,18-1,6.18.62,12,2.05,17.83,1,4.15,2.56,8.16,3.25,12.41a5.29,5.29,0,0,1-1.7,5.17c-3.59,3.43-7.85,6-11.56,9.3C6.22,107.62.35,112.65,0,121.19v7.05c.37,6.16,3.54,10.74,7.87,14.9,3.83,3.69,8.15,6.72,12.22,10.08,6.08,5,6.15,5.06,4.08,12.79-1.67,6.24-3.77,12.36-4.44,18.84-1.08,10.37,3.53,19.62,13.52,23.7,5.79,2.36,11.92,2.63,18,3,3.43.19,6.87-.11,10.3.47a6.13,6.13,0,0,1,5,3.61c2.39,4.84,3.66,10.1,5.82,15a44.94,44.94,0,0,0,6.73,11.45c6.68,7.76,16.5,9,25.52,5.49a54.65,54.65,0,0,0,9.28-5c4.1-2.62,7.9-5.68,12.32-7.81a5.9,5.9,0,0,1,5.51,0c4.55,2.08,8.35,5.3,12.52,8s8.63,5.29,13.66,6.22c7.33,1.35,14,0,19.52-5.41,3.76-3.69,6.08-8.19,8.14-12.89,2.12-4.85,3.41-10,5.71-14.8a6.25,6.25,0,0,1,5.38-3.83c3.26-.43,6.53-.33,9.79-.46,5.2-.23,10.41-.47,15.43-2,9-2.72,14.64-8.38,16.17-17.93,1-6.18-.6-12-2-17.84-1-4.15-2.55-8.16-3.24-12.42a5.28,5.28,0,0,1,1.68-5.17c3.58-3.44,7.86-6,11.56-9.3,5.72-5.08,11.61-10.09,12-18.63v-6.55C257.8,115.11,254.4,110.29,249.78,105.94Zm-59-5.4q-28.55,28.44-57,57c-4,4-7.9,8-11.92,11.9-6.37,6.22-14.53,6.3-20.84.06Q83.75,152.4,66.67,135.15c-6.15-6.21-6.27-14.93-.49-20.61s14.29-5.34,20.39.67c7.53,7.42,15.06,14.84,22.37,22.47,2.11,2.21,3.08,1.82,5-.12,14.42-14.54,33.34-33.4,57.16-57.27,4-4,8.61-6,14.32-4.54A13.93,13.93,0,0,1,196,89.23C196.09,93.86,193.93,97.38,190.76,100.54Z"/></g></g></svg>