<svg xmlns="http://www.w3.org/2000/svg" viewBox="0 0 193.94 129.12"><defs><style>.cls-1{fill:#96f;}</style></defs><title>icon-eye</title><g id="Capa_2" data-name="Capa 2"><g id="Capa_1-2" data-name="Capa 1"><path class="cls-1" d="M97,129.12c-35.9,0-69.52-18.12-92.25-49.7a25.75,25.75,0,0,1,0-29.71C27.44,18.12,61.06,0,97,0s69.53,18.12,92.25,49.71h0a25.75,25.75,0,0,1,0,29.71C166.49,111,132.87,129.12,97,129.12ZM97,12C65,12,34.9,28.3,14.46,56.71a14,14,0,0,0,0,15.7C34.9,100.82,65,117.12,97,117.12s62.06-16.3,82.5-44.71a14,14,0,0,0,0-15.7C159,28.3,129,12,97,12Z"/><path class="cls-1" d="M97,107.45a42.89,42.89,0,1,1,42.88-42.89A42.94,42.94,0,0,1,97,107.45Zm0-73.78a30.89,30.89,0,1,0,30.88,30.89A30.92,30.92,0,0,0,97,33.67Z"/></g></g></svg>