<svg xmlns="http://www.w3.org/2000/svg" viewBox="0 0 216.03 216.03"><defs><style>.cls-1{fill:#fff;}</style></defs><title>icon-filter</title><g id="Capa_2" data-name="Capa 2"><g id="Capa_1-2" data-name="Capa 1"><path class="cls-1" d="M166,78.57a8.86,8.86,0,0,0-8.1-5.15H61.24A8.92,8.92,0,0,0,54.4,88.09l38.2,45.48V168a5,5,0,0,0,2.67,4.43,5,5,0,0,0,5.16-.26l24.34-16.4a5,5,0,0,0,2.22-4.17V133.13l37.79-45h0A8.87,8.87,0,0,0,166,78.57Zm-47.93,49.5a5,5,0,0,0-1.17,3.23V149l-14.29,9.62V131.74a5,5,0,0,0-1.18-3.23l-37.83-45h91.9Z"/><path class="cls-1" d="M108,216A108,108,0,1,1,216,108,108.14,108.14,0,0,1,108,216Zm0-206a98,98,0,1,0,98,98A98.13,98.13,0,0,0,108,10Z"/></g></g></svg>